<svg width="158" height="32" viewBox="0 0 158 32" fill="none" xmlns="http://www.w3.org/2000/svg">
<g clip-path="url(#clip0_1_2)">
<path d="M53.6758 22H51.8594L50.375 18.0742H44.4375L43.041 22H41.2148L46.5859 7.99609H48.2852L53.6758 22ZM49.8379 16.5996L47.6406 10.6328C47.569 10.4375 47.4974 10.125 47.4258 9.69531H47.3867C47.3216 10.0924 47.2467 10.4049 47.1621 10.6328L44.9844 16.5996H49.8379ZM65.4922 22H63.207L57.7969 15.5938C57.5951 15.3529 57.4714 15.1901 57.4258 15.1055H57.3867V22H55.7461V7.99609H57.3867V14.5781H57.4258C57.5169 14.4349 57.6406 14.2754 57.7969 14.0996L63.0312 7.99609H65.0723L59.0664 14.7148L65.4922 22ZM66.6934 21.4336V19.5C66.9147 19.6953 67.1784 19.8711 67.4844 20.0273C67.7969 20.1836 68.1224 20.3171 68.4609 20.4277C68.806 20.5319 69.151 20.6133 69.4961 20.6719C69.8411 20.7305 70.1602 20.7598 70.4531 20.7598C71.4622 20.7598 72.2142 20.5742 72.709 20.2031C73.2103 19.8255 73.4609 19.2852 73.4609 18.582C73.4609 18.2044 73.3763 17.8757 73.207 17.5957C73.0443 17.3158 72.8164 17.0618 72.5234 16.834C72.2305 16.5996 71.8822 16.3783 71.4785 16.1699C71.0814 15.9551 70.6517 15.7305 70.1895 15.4961C69.7012 15.2487 69.2454 14.998 68.8223 14.7441C68.3991 14.4902 68.0312 14.2103 67.7188 13.9043C67.4062 13.5983 67.1589 13.2533 66.9766 12.8691C66.8008 12.4785 66.7129 12.0228 66.7129 11.502C66.7129 10.8639 66.8529 10.3105 67.1328 9.8418C67.4128 9.36654 67.7806 8.97591 68.2363 8.66992C68.6921 8.36393 69.2096 8.13607 69.7891 7.98633C70.375 7.83659 70.9707 7.76172 71.5762 7.76172C72.9564 7.76172 73.9622 7.92773 74.5938 8.25977V10.1055C73.7669 9.53255 72.7057 9.24609 71.4102 9.24609C71.0521 9.24609 70.694 9.28516 70.3359 9.36328C69.9779 9.4349 69.6589 9.55534 69.3789 9.72461C69.099 9.89388 68.8711 10.112 68.6953 10.3789C68.5195 10.6458 68.4316 10.9714 68.4316 11.3555C68.4316 11.7135 68.4967 12.0228 68.627 12.2832C68.7637 12.5436 68.9622 12.7812 69.2227 12.9961C69.4831 13.2109 69.7988 13.4193 70.1699 13.6211C70.5475 13.8229 70.9805 14.0443 71.4688 14.2852C71.9701 14.5326 72.4453 14.793 72.8945 15.0664C73.3438 15.3398 73.7376 15.6426 74.0762 15.9746C74.4147 16.3066 74.6816 16.6745 74.877 17.0781C75.0788 17.4818 75.1797 17.944 75.1797 18.4648C75.1797 19.1549 75.043 19.7409 74.7695 20.2227C74.5026 20.6979 74.138 21.0853 73.6758 21.3848C73.2201 21.6842 72.6927 21.8991 72.0938 22.0293C71.4948 22.166 70.8633 22.2344 70.1992 22.2344C69.9779 22.2344 69.7044 22.2148 69.3789 22.1758C69.0534 22.1432 68.7214 22.0911 68.3828 22.0195C68.0443 21.9544 67.722 21.873 67.416 21.7754C67.1165 21.6712 66.8757 21.5573 66.6934 21.4336ZM91.7812 22H90.1797V20.3008H90.1406C89.3984 21.5898 88.2526 22.2344 86.7031 22.2344C85.4466 22.2344 84.4408 21.7884 83.6855 20.8965C82.9368 19.998 82.5625 18.7773 82.5625 17.2344C82.5625 15.5807 82.9792 14.2559 83.8125 13.2598C84.6458 12.2637 85.7559 11.7656 87.1426 11.7656C88.5163 11.7656 89.5156 12.306 90.1406 13.3867H90.1797V7.19531H91.7812V22ZM90.1797 17.4785V16.0039C90.1797 15.1966 89.9128 14.513 89.3789 13.9531C88.8451 13.3932 88.168 13.1133 87.3477 13.1133C86.3711 13.1133 85.6029 13.4714 85.043 14.1875C84.4831 14.9036 84.2031 15.8932 84.2031 17.1562C84.2031 18.3086 84.4701 19.2201 85.0039 19.8906C85.5443 20.5547 86.2669 20.8867 87.1719 20.8867C88.0638 20.8867 88.7865 20.5645 89.3398 19.9199C89.8997 19.2754 90.1797 18.4616 90.1797 17.4785ZM103.061 17.4004H96C96.026 18.5137 96.3255 19.373 96.8984 19.9785C97.4714 20.584 98.2591 20.8867 99.2617 20.8867C100.388 20.8867 101.423 20.5156 102.367 19.7734V21.2773C101.488 21.9154 100.326 22.2344 98.8809 22.2344C97.4681 22.2344 96.3581 21.7819 95.5508 20.877C94.7435 19.9655 94.3398 18.6862 94.3398 17.0391C94.3398 15.4831 94.7793 14.2168 95.6582 13.2402C96.5436 12.2572 97.6406 11.7656 98.9492 11.7656C100.258 11.7656 101.27 12.1888 101.986 13.0352C102.702 13.8815 103.061 15.0566 103.061 16.5605V17.4004ZM101.42 16.043C101.413 15.1185 101.189 14.3991 100.746 13.8848C100.31 13.3704 99.7012 13.1133 98.9199 13.1133C98.1647 13.1133 97.5234 13.3835 96.9961 13.9238C96.4688 14.4642 96.1432 15.1706 96.0195 16.043H101.42ZM104.887 21.6387V19.9199C105.759 20.5645 106.719 20.8867 107.768 20.8867C109.174 20.8867 109.877 20.418 109.877 19.4805C109.877 19.2135 109.815 18.9889 109.691 18.8066C109.574 18.6178 109.411 18.4518 109.203 18.3086C109.001 18.1654 108.76 18.0384 108.48 17.9277C108.207 17.8105 107.911 17.6901 107.592 17.5664C107.149 17.3906 106.758 17.2148 106.42 17.0391C106.088 16.8568 105.808 16.6549 105.58 16.4336C105.359 16.2057 105.189 15.9486 105.072 15.6621C104.962 15.3757 104.906 15.0404 104.906 14.6562C104.906 14.1875 105.014 13.7741 105.229 13.416C105.443 13.0514 105.73 12.7487 106.088 12.5078C106.446 12.2604 106.853 12.0749 107.309 11.9512C107.771 11.8275 108.246 11.7656 108.734 11.7656C109.6 11.7656 110.375 11.9154 111.059 12.2148V13.8359C110.323 13.3542 109.477 13.1133 108.52 13.1133C108.22 13.1133 107.95 13.1491 107.709 13.2207C107.468 13.2858 107.26 13.3802 107.084 13.5039C106.915 13.6276 106.781 13.7773 106.684 13.9531C106.592 14.1224 106.547 14.3112 106.547 14.5195C106.547 14.7799 106.592 14.998 106.684 15.1738C106.781 15.3496 106.921 15.5059 107.104 15.6426C107.286 15.7793 107.507 15.903 107.768 16.0137C108.028 16.1243 108.324 16.2448 108.656 16.375C109.099 16.5443 109.496 16.7201 109.848 16.9023C110.199 17.0781 110.499 17.2799 110.746 17.5078C110.993 17.7292 111.182 17.9863 111.312 18.2793C111.449 18.5723 111.518 18.9206 111.518 19.3242C111.518 19.819 111.407 20.2487 111.186 20.6133C110.971 20.9779 110.681 21.2806 110.316 21.5215C109.952 21.7624 109.532 21.9414 109.057 22.0586C108.581 22.1758 108.083 22.2344 107.562 22.2344C106.534 22.2344 105.642 22.0358 104.887 21.6387ZM122.289 22H120.043L115.629 17.1953H115.59V22H113.988V7.19531H115.59V16.5801H115.629L119.828 12H121.928L117.289 16.8242L122.289 22ZM128.568 21.9023C128.191 22.1107 127.693 22.2148 127.074 22.2148C125.323 22.2148 124.447 21.2383 124.447 19.2852V13.3672H122.729V12H124.447V9.55859L126.049 9.04102V12H128.568V13.3672H126.049V19.002C126.049 19.6725 126.163 20.151 126.391 20.4375C126.618 20.724 126.996 20.8672 127.523 20.8672C127.927 20.8672 128.275 20.7565 128.568 20.5352V21.9023ZM134.887 22.2344C133.409 22.2344 132.227 21.7689 131.342 20.8379C130.463 19.9004 130.023 18.6602 130.023 17.1172C130.023 15.4375 130.482 14.1257 131.4 13.1816C132.318 12.2376 133.559 11.7656 135.121 11.7656C136.612 11.7656 137.774 12.2246 138.607 13.1426C139.447 14.0605 139.867 15.3333 139.867 16.9609C139.867 18.556 139.415 19.8353 138.51 20.7988C137.611 21.7559 136.404 22.2344 134.887 22.2344ZM135.004 13.1133C133.975 13.1133 133.161 13.4648 132.562 14.168C131.964 14.8646 131.664 15.8281 131.664 17.0586C131.664 18.2435 131.967 19.1777 132.572 19.8613C133.178 20.5449 133.988 20.8867 135.004 20.8867C136.039 20.8867 136.833 20.5514 137.387 19.8809C137.947 19.2103 138.227 18.2565 138.227 17.0195C138.227 15.7695 137.947 14.806 137.387 14.1289C136.833 13.4518 136.039 13.1133 135.004 13.1133ZM144.066 20.5547H144.027V26.5996H142.426V12H144.027V13.7578H144.066C144.854 12.4297 146.007 11.7656 147.523 11.7656C148.812 11.7656 149.818 12.2148 150.541 13.1133C151.264 14.0052 151.625 15.2031 151.625 16.707C151.625 18.3802 151.218 19.7214 150.404 20.7305C149.59 21.7331 148.477 22.2344 147.064 22.2344C145.769 22.2344 144.77 21.6745 144.066 20.5547ZM144.027 16.5215V17.918C144.027 18.7448 144.294 19.4479 144.828 20.0273C145.368 20.6003 146.052 20.8867 146.879 20.8867C147.849 20.8867 148.607 20.5156 149.154 19.7734C149.708 19.0312 149.984 17.9993 149.984 16.6777C149.984 15.5645 149.727 14.6921 149.213 14.0605C148.699 13.429 148.002 13.1133 147.123 13.1133C146.192 13.1133 145.443 13.4388 144.877 14.0898C144.311 14.7344 144.027 15.5449 144.027 16.5215Z" fill="currentColor"/>
<g clip-path="url(#clip1_1_2)">
<path d="M11.2778 0.372222L5.71667 1.40278V8.98611L11.2778 10.1722L16.8583 7.93611V2.27778L11.2778 0.372222Z" fill="url(#paint0_linear_1_2)"/>
<path d="M5.71667 1.40278V8.98611L11.3361 10.1722V0.45L5.71667 1.40278ZM8.08889 8.40278L6.51389 8.09167V2.25833L8.08889 2.00556V8.40278ZM10.5389 8.85L8.73056 8.55833V1.88889L10.5389 1.57778V8.85Z" fill="#341A6E"/>
<path d="M23.3139 0.469445L17.7528 1.5V9.08333L23.3139 10.2694L28.875 8.01389V2.375L23.3139 0.469445Z" fill="url(#paint1_linear_1_2)"/>
<path d="M17.7528 1.5V9.08333L23.3333 10.2694V0.547222L17.7528 1.5ZM20.1056 8.5L18.5306 8.18889V2.35556L20.1056 2.10278V8.5ZM22.5556 8.94722L20.7472 8.65556V1.98611L22.5556 1.65556V8.94722Z" fill="#341A6E"/>
<path d="M5.58056 10.8333L0.0194444 11.8639V19.4472L5.58056 20.6333L11.1611 18.3972V12.7389L5.58056 10.8333Z" fill="url(#paint2_linear_1_2)"/>
<path d="M0 11.8639V19.3889L5.61944 20.575V10.8528L0 11.8639ZM2.35278 18.8833L0.777778 18.5528V12.7194L2.35278 12.4472V18.8833ZM4.82222 19.3889L3.01389 19.0972V12.35L4.82222 12.0389V19.3889Z" fill="#341A6E"/>
<path d="M17.5778 10.7556L12.0167 11.7861V19.3694L17.5778 20.575L23.1389 18.3194V12.6611L17.5778 10.7556Z" fill="url(#paint3_linear_1_2)"/>
<path d="M12.0167 11.7861V19.3889L17.6167 20.575V10.8528L12.0167 11.7861ZM14.3694 18.8056L12.7944 18.475V12.6417L14.3694 12.3694V18.8056ZM16.8194 19.2333L15.0111 18.9417V12.2722L16.8194 11.9611V19.2333Z" fill="#341A6E"/>
<path d="M29.575 10.8528L24.0139 11.8833V19.4667L29.575 20.6528L35.1556 18.4167V12.7583L29.575 10.8528Z" fill="url(#paint4_linear_1_2)"/>
<path d="M24.0139 11.8833V19.3889L29.6333 20.575V10.8528L24.0139 11.8833ZM26.3861 18.9028L24.8111 18.5722V12.7389L26.3861 12.4667V18.9028ZM28.8361 19.3306L27.0278 19.0389V12.3694L28.8361 12.0583V19.3306Z" fill="#341A6E"/>
<path d="M11.1417 21.4111L5.58056 22.4222V30.0056L11.1417 31.2111L16.7222 28.9556V23.3167L11.1417 21.4111Z" fill="url(#paint5_linear_1_2)"/>
<path d="M5.58056 22.4222V30.0056L11.2 31.2111V21.3333L5.58056 22.4222ZM7.95278 29.4417L6.37778 29.1111V23.2778L7.95278 23.0056V29.4417ZM10.4028 29.8889L8.59444 29.5972V22.9083L10.4028 22.5972V29.8889Z" fill="#341A6E"/>
<path d="M23.1583 21.4889L17.5972 22.5194V30.1028L23.1583 31.2889L28.7389 29.0528V23.3944L23.1583 21.4889Z" fill="url(#paint6_linear_1_2)"/>
<path d="M17.5972 22.5194V30.1028L23.2167 31.2889V21.5667L17.5972 22.5194ZM19.9694 29.5389L18.3944 29.2083V23.375L19.9694 23.1028V29.5389ZM22.4194 29.9667L20.6111 29.675V23.0056L22.4194 22.6944V29.9667Z" fill="#341A6E"/>
</g>
</g>
<defs>
<linearGradient id="paint0_linear_1_2" x1="5.71667" y1="5.27222" x2="16.8583" y2="5.27222" gradientUnits="userSpaceOnUse">
<stop stop-color="#B77AF4"/>
<stop offset="1" stop-color="#773ADC"/>
</linearGradient>
<linearGradient id="paint1_linear_1_2" x1="17.7528" y1="5.36944" x2="28.875" y2="5.36944" gradientUnits="userSpaceOnUse">
<stop stop-color="#B77AF4"/>
<stop offset="1" stop-color="#773ADC"/>
</linearGradient>
<linearGradient id="paint2_linear_1_2" x1="0.0194444" y1="15.7333" x2="11.1417" y2="15.7333" gradientUnits="userSpaceOnUse">
<stop stop-color="#B77AF4"/>
<stop offset="1" stop-color="#773ADC"/>
</linearGradient>
<linearGradient id="paint3_linear_1_2" x1="12.0167" y1="15.6556" x2="23.1389" y2="15.6556" gradientUnits="userSpaceOnUse">
<stop stop-color="#B77AF4"/>
<stop offset="1" stop-color="#773ADC"/>
</linearGradient>
<linearGradient id="paint4_linear_1_2" x1="24.0139" y1="15.7528" x2="35.1556" y2="15.7528" gradientUnits="userSpaceOnUse">
<stop stop-color="#B77AF4"/>
<stop offset="1" stop-color="#773ADC"/>
</linearGradient>
<linearGradient id="paint5_linear_1_2" x1="5.58056" y1="26.3111" x2="16.7222" y2="26.3111" gradientUnits="userSpaceOnUse">
<stop stop-color="#B77AF4"/>
<stop offset="1" stop-color="#773ADC"/>
</linearGradient>
<linearGradient id="paint6_linear_1_2" x1="17.5972" y1="26.3889" x2="28.7389" y2="26.3889" gradientUnits="userSpaceOnUse">
<stop stop-color="#B77AF4"/>
<stop offset="1" stop-color="#773ADC"/>
</linearGradient>
<clipPath id="clip0_1_2">
<rect width="158" height="32" fill="white"/>
</clipPath>
<clipPath id="clip1_1_2">
<rect width="35" height="35" fill="white" transform="translate(0 -2)"/>
</clipPath>
</defs>
</svg>
